<?xml version="1.0" standalone="no"?>
<!DOCTYPE svg PUBLIC "-//W3C//DTD SVG 20010904//EN"
 "http://www.w3.org/TR/2001/REC-SVG-20010904/DTD/svg10.dtd">
<svg version="1.0" xmlns="http://www.w3.org/2000/svg"
 width="512.000000pt" height="512.000000pt" viewBox="0 0 512.000000 512.000000"
 preserveAspectRatio="xMidYMid meet">

<g transform="translate(0.000000,512.000000) scale(0.100000,-0.100000)"
fill="#000000" stroke="none">
<path d="M0 2560 l0 -2560 2560 0 2560 0 0 2560 0 2560 -2560 0 -2560 0 0
-2560z m2870 2384 c803 -104 1493 -600 1850 -1329 241 -491 305 -1048 184
-1593 -95 -425 -328 -846 -644 -1162 -584 -585 -1421 -826 -2238 -644 -425 95
-846 328 -1162 644 -580 579 -822 1409 -648 2220 41 192 126 424 220 600 477
895 1439 1393 2438 1264z"/>
<path d="M2395 4849 c-437 -28 -855 -185 -1225 -461 -122 -91 -347 -316 -438
-438 -281 -378 -433 -785 -462 -1244 -31 -501 100 -997 371 -1405 106 -159
187 -256 320 -387 469 -456 1091 -685 1746 -644 576 37 1095 276 1498 691 389
400 609 897 645 1452 43 678 -204 1318 -691 1793 -337 327 -751 538 -1217 619
-81 14 -356 37 -407 33 -11 0 -74 -4 -140 -9z m333 -171 c15 -13 16 -40 0 -56
-7 -7 -42 -12 -85 -12 l-73 0 0 -30 c0 -30 1 -30 54 -30 36 0 60 -5 70 -16 19
-18 19 -20 6 -45 -9 -16 -22 -19 -75 -19 l-65 0 0 -34 0 -34 68 -7 c75 -7 96
-15 100 -39 7 -36 -16 -46 -109 -46 -48 0 -100 5 -114 10 l-26 10 3 171 c4
211 -1 204 138 194 52 -4 101 -12 108 -17z m-358 -3 c23 -27 -2 -62 -49 -70
-35 -6 -40 -10 -36 -28 2 -12 14 -73 25 -136 21 -113 21 -114 2 -134 -16 -15
-23 -17 -41 -8 -21 12 -23 17 -41 114 -5 31 -15 82 -21 113 l-11 56 -40 -6
c-46 -8 -68 5 -68 40 0 30 4 32 113 54 117 23 151 24 167 5z m529 -24 c6 -10
9 -20 7 -22 -2 -2 -7 -26 -10 -54 l-8 -50 60 58 c49 48 64 58 88 55 22 -2 30
-9 32 -27 3 -18 -11 -39 -59 -87 l-62 -63 36 -69 c42 -79 46 -107 18 -122 -32
-16 -48 -2 -88 75 -37 73 -53 85 -53 41 0 -38 -20 -84 -39 -89 -28 -7 -51 11
-51 40 0 43 51 307 62 321 16 18 56 15 67 -7z m370 -87 c15 -19 21 -41 21 -78
0 -28 3 -75 7 -104 l6 -53 34 87 c19 49 39 92 46 96 22 14 47 8 57 -14 9 -19
0 -50 -43 -163 -62 -160 -88 -191 -134 -165 -37 21 -41 33 -50 150 l-8 105
-33 -87 c-38 -101 -52 -116 -87 -100 -14 7 -25 19 -25 27 0 30 110 300 127
312 27 21 60 15 82 -13z m-1443 -25 c25 -28 11 -47 -60 -82 -47 -23 -57 -31
-54 -50 3 -24 0 -23 108 -11 51 6 57 4 83 -21 15 -15 32 -46 39 -68 18 -61 -8
-102 -96 -145 -83 -40 -116 -38 -116 8 0 27 6 33 65 59 65 30 77 47 56 79 -6
11 -16 11 -47 3 -70 -19 -112 -14 -144 17 -16 16 -32 45 -35 65 -11 56 10 87
90 129 39 21 75 38 81 38 6 0 19 -9 30 -21z m1851 -159 c95 -54 106 -117 42
-226 -54 -90 -75 -112 -121 -126 -49 -14 -110 8 -159 58 -29 30 -34 42 -34 82
0 39 8 61 49 126 75 121 127 141 223 86z m-2103 -140 c123 -108 140 -132 114
-158 -19 -19 -44 -14 -78 14 -33 28 -43 27 -95 -12 -17 -12 -18 -19 -8 -54 8
-31 7 -44 -4 -60 -16 -23 -46 -26 -60 -7 -11 13 -93 304 -93 328 0 26 39 59
69 59 21 0 58 -26 155 -110z m-314 -39 c14 -27 14 -26 -20 -64 l-29 -34 94
-101 c52 -56 95 -105 95 -108 0 -20 -24 -44 -45 -44 -17 0 -48 27 -116 100
l-92 99 -34 -29 c-38 -34 -37 -34 -64 -20 -36 20 -21 49 69 135 90 87 122 102
142 66z m2660 4 c18 -22 6 -44 -89 -153 l-81 -94 50 -45 c53 -48 59 -62 34
-87 -25 -25 -39 -20 -114 45 -55 48 -70 67 -68 85 2 12 50 77 107 143 106 124
132 141 161 106z m-1254 -124 c51 -23 1068 -610 1142 -658 28 -19 52 -39 52
-43 0 -8 -502 -302 -526 -308 -7 -2 -126 62 -264 142 -139 80 -254 146 -256
146 -2 0 -4 -245 -4 -545 0 -517 -1 -548 -19 -583 -23 -45 -56 -77 -94 -91
-42 -16 -291 -14 -330 3 -39 16 -82 61 -96 99 -7 19 -11 208 -11 558 0 291 -2
529 -5 529 -3 0 -107 -59 -231 -131 -124 -71 -231 -129 -238 -127 -23 6 -526
300 -526 308 0 4 24 23 53 43 68 46 1087 633 1141 658 55 25 157 25 212 0z
m1511 -132 c20 -19 44 -52 54 -75 28 -62 13 -100 -67 -171 -83 -74 -99 -82
-153 -83 -39 0 -49 5 -92 48 -54 54 -69 103 -49 152 13 31 102 119 155 152 45
29 107 19 152 -23z m-3069 -95 c68 -58 126 -112 129 -120 6 -17 -24 -54 -43
-54 -21 0 -259 210 -262 232 -2 11 -1 26 2 34 13 33 53 12 174 -92z m-220 -46
c18 -18 15 -32 -19 -86 -31 -50 -35 -82 -12 -89 6 -2 33 16 58 41 57 54 91 64
140 40 45 -21 75 -63 75 -105 0 -48 -74 -169 -103 -169 -25 0 -47 17 -47 37 0
7 14 35 31 63 58 95 19 131 -61 56 -54 -51 -88 -58 -140 -31 -59 30 -75 86
-43 148 51 99 88 128 121 95z m3468 -144 c24 -12 47 -37 75 -85 43 -72 45
-103 8 -114 -26 -9 -43 7 -76 66 -14 27 -34 51 -45 55 -20 6 -116 -38 -149
-69 -24 -23 -24 -44 1 -84 17 -29 22 -32 44 -22 21 10 22 14 13 39 -14 36 5
62 41 58 28 -3 77 -84 66 -111 -10 -26 -144 -99 -170 -93 -14 4 -35 29 -57 69
-49 86 -52 107 -29 159 15 35 32 51 87 83 69 40 119 63 143 64 8 1 29 -6 48
-15z m-3558 -179 c17 -14 34 -40 37 -57 l7 -31 61 6 c70 6 97 -4 97 -37 0 -35
-17 -43 -103 -48 -107 -7 -115 -19 -38 -58 34 -17 64 -37 67 -45 8 -20 -14
-55 -34 -55 -31 0 -296 128 -310 149 -12 18 -10 29 19 91 18 39 44 80 57 91
37 28 103 26 140 -6z m3723 -115 c21 -12 26 -54 7 -67 -33 -21 -305 -119 -321
-115 -21 5 -34 49 -18 65 8 8 281 120 309 126 2 1 12 -4 23 -9z m-3006 -268
l220 -127 5 -425 c3 -295 9 -431 17 -445 26 -46 15 -39 513 -327 312 -181 271
-180 571 -5 420 244 481 278 492 275 27 -6 527 -300 527 -309 0 -5 -24 -24
-52 -43 -91 -58 -1081 -628 -1133 -652 -60 -28 -156 -32 -213 -9 -79 33 -1156
662 -1191 695 -20 20 -46 54 -56 75 -19 38 -20 68 -23 735 -1 382 0 705 3 718
l6 23 47 -26 c26 -14 146 -83 267 -153z m2420 -542 c0 -457 -3 -691 -10 -703
-10 -15 -39 -1 -275 135 l-265 153 0 415 0 415 265 153 c236 136 265 150 275
135 7 -12 10 -246 10 -703z m-3360 626 c18 -13 19 -19 7 -87 -10 -59 -10 -74
0 -81 26 -16 42 -3 51 42 11 55 36 85 65 76 28 -9 35 -37 22 -87 -14 -53 -8
-69 28 -69 28 0 30 3 42 61 18 85 48 110 84 71 15 -18 15 -25 -5 -108 -11 -50
-29 -98 -39 -108 -19 -19 -21 -19 -162 13 -186 43 -176 39 -188 61 -12 23 24
193 47 215 18 19 24 19 48 1z m3893 -185 c166 -20 192 -31 192 -81 0 -14 -6
-33 -12 -42 -17 -22 -280 -158 -305 -158 -25 0 -46 23 -41 47 2 10 22 28 44
40 l41 23 -10 50 c-9 47 -11 50 -41 50 -35 0 -76 24 -76 45 0 17 27 45 43 45
7 -1 81 -9 165 -19z m-3813 -194 c110 -41 142 -58 154 -78 18 -32 8 -74 -20
-89 -11 -6 -88 -24 -172 -40 -163 -31 -187 -29 -187 15 0 32 17 40 130 60 52
10 101 20 108 24 7 4 -29 22 -80 40 -117 43 -138 56 -138 85 0 50 29 48 205
-17z m4018 -148 c20 -11 23 -52 4 -67 -7 -6 -36 -12 -66 -14 l-52 -3 63 -50
c68 -54 78 -73 53 -99 -25 -25 -37 -20 -111 39 l-68 54 -33 -24 c-18 -14 -48
-36 -66 -50 -38 -28 -69 -32 -87 -10 -20 24 -3 49 68 101 l67 49 -55 3 c-30 2
-60 8 -67 14 -17 14 -16 55 1 65 20 11 326 3 349 -8z m-3869 -165 c9 -8 16
-22 16 -29 0 -30 -46 -42 -200 -54 -153 -12 -155 -12 -172 9 -13 17 -15 27 -8
41 6 10 12 20 13 20 4 3 263 26 299 28 21 0 43 -5 52 -15z m6 -134 c23 -23 26
-59 8 -82 -7 -8 -48 -39 -90 -68 -43 -30 -76 -55 -74 -58 2 -2 43 4 91 13 67
12 90 13 101 4 17 -14 18 -53 2 -66 -7 -5 -80 -22 -162 -36 -137 -25 -152 -25
-173 -11 -61 39 -43 79 67 155 50 34 89 63 88 64 -2 1 -44 -5 -94 -13 -49 -9
-98 -13 -107 -9 -20 8 -23 50 -4 65 13 11 250 59 300 61 15 1 36 -8 47 -19z
m3775 -26 c86 -13 97 -36 71 -149 -24 -100 -96 -141 -176 -100 -22 11 -35 12
-59 4 -39 -14 -89 2 -122 37 -20 22 -24 35 -23 87 2 85 20 146 46 156 13 4 63
0 122 -11 56 -10 119 -21 141 -24z m-173 -350 c67 -53 129 -104 136 -112 18
-24 15 -59 -9 -83 -21 -21 -28 -21 -133 -15 -200 12 -236 17 -247 37 -18 35 5
58 63 61 51 3 52 4 65 45 l14 42 -35 32 c-20 17 -36 37 -36 44 0 18 28 45 45
45 7 0 69 -43 137 -96z m-3522 31 c30 -27 63 -120 56 -158 -10 -52 -51 -81
-184 -132 -118 -45 -124 -46 -143 -29 -41 37 -22 55 119 110 58 22 110 48 115
56 11 17 4 55 -16 81 -12 18 -19 17 -135 -28 -68 -25 -130 -45 -139 -43 -25 5
-40 35 -27 56 6 9 65 38 130 64 128 52 186 57 224 23z m506 -774 c13 -25 10
-38 -30 -143 l-26 -67 81 54 c44 30 89 55 99 55 27 0 60 -35 60 -64 0 -21
-164 -248 -194 -268 -22 -15 -47 -7 -58 17 -10 23 -6 31 36 86 26 34 42 58 34
53 -7 -4 -39 -25 -70 -46 -104 -70 -137 -42 -93 78 l25 69 -26 -30 c-14 -16
-35 -40 -45 -52 -10 -13 -25 -23 -33 -23 -17 0 -46 27 -46 43 0 11 134 191
179 240 33 36 89 35 107 -2z m2442 -1 c37 -23 54 -60 50 -108 -3 -33 -1 -35
59 -59 70 -28 87 -53 56 -85 -19 -19 -20 -18 -103 12 -104 38 -119 30 -61 -36
43 -49 50 -74 27 -94 -28 -22 -53 -4 -148 105 -103 119 -121 146 -113 167 6
16 85 85 119 105 31 18 77 15 114 -7z m-258 -317 c121 -112 142 -141 120 -167
-18 -23 -40 -19 -79 14 l-34 29 -41 -24 c-23 -14 -40 -27 -39 -30 11 -38 13
-88 3 -100 -18 -22 -48 -18 -64 8 -15 24 -76 278 -76 316 0 35 28 61 64 61 25
0 52 -19 146 -107z m-1765 43 c15 -23 14 -36 -11 -187 -27 -155 -39 -189 -69
-189 -30 0 -45 29 -39 75 6 43 6 44 -36 65 l-42 22 -32 -31 c-34 -33 -55 -38
-74 -19 -25 25 -9 53 100 169 105 111 115 119 150 119 29 0 41 -6 53 -24z
m1389 -68 c22 -32 6 -52 -64 -78 -66 -25 -73 -30 -64 -54 5 -14 17 -16 79 -10
69 6 73 6 104 -23 26 -22 34 -39 38 -76 9 -80 -15 -107 -133 -147 -51 -18 -54
-18 -75 -1 -26 21 -19 57 14 67 64 19 117 48 117 63 0 31 -19 39 -86 33 -77
-6 -106 6 -129 53 -37 80 -4 136 103 173 73 26 78 26 96 0z m-1157 -25 c3 -9
2 -39 -4 -67 -6 -28 -10 -52 -9 -53 1 -2 32 20 69 48 68 53 99 58 112 20 9
-29 -2 -43 -70 -95 -36 -27 -65 -49 -65 -50 0 -1 13 -33 30 -71 33 -79 37
-107 15 -125 -29 -24 -58 2 -89 79 -15 39 -32 71 -36 71 -4 0 -10 -14 -14 -32
-9 -48 -34 -80 -58 -76 -43 6 -43 28 2 189 23 85 47 160 53 167 14 18 57 15
64 -5z m857 -65 c18 -29 -5 -52 -60 -61 -84 -13 -94 -16 -94 -36 0 -22 19 -31
66 -31 47 0 100 -23 114 -51 7 -12 13 -44 13 -70 1 -79 -40 -110 -165 -124
-50 -6 -58 -4 -72 16 -21 31 -5 57 42 64 96 14 107 19 110 46 3 29 -15 39 -75
39 -70 0 -113 44 -113 115 0 44 13 71 43 87 59 31 172 35 191 6z m-409 -18 c7
-12 75 -315 75 -335 0 -8 -12 -21 -26 -27 -23 -11 -29 -10 -45 11 -11 13 -19
31 -19 41 0 30 -28 50 -70 50 -35 0 -39 -3 -50 -34 -14 -45 -34 -60 -65 -52
-37 10 -32 41 33 206 63 158 79 177 133 158 16 -5 31 -14 34 -18z"/>
<path d="M3531 4257 c-44 -68 -50 -97 -25 -121 21 -21 63 -31 82 -20 15 10 92
131 92 146 0 19 -54 58 -80 58 -23 0 -35 -11 -69 -63z"/>
<path d="M1460 4198 c12 -39 13 -40 34 -25 16 11 15 14 -13 34 l-29 22 8 -31z"/>
<path d="M4008 3849 c-39 -34 -58 -58 -58 -73 0 -27 42 -76 64 -76 20 0 140
102 144 122 4 23 -46 78 -71 78 -12 0 -48 -23 -79 -51z"/>
<path d="M706 3423 c-9 -9 -38 -75 -34 -78 2 0 14 -6 28 -11 23 -10 26 -8 42
29 14 30 15 43 7 53 -13 15 -32 18 -43 7z"/>
<path d="M4460 2890 c0 -20 1 -20 33 -4 45 23 45 24 4 24 -30 0 -37 -4 -37
-20z"/>
<path d="M4366 2268 c-20 -63 -11 -98 25 -98 24 0 37 20 41 65 3 39 2 40 -30
43 -20 2 -34 -2 -36 -10z"/>
<path d="M4516 2229 c-10 -50 -7 -66 11 -73 23 -9 40 12 48 57 6 29 4 37 -8
37 -8 0 -22 2 -30 6 -10 3 -16 -4 -21 -27z"/>
<path d="M4367 1893 c-17 -17 -5 -33 25 -33 30 0 31 0 13 20 -19 21 -28 24
-38 13z"/>
<path d="M3738 1151 l-33 -30 20 -20 20 -20 33 25 c37 29 41 49 12 64 -16 8
-25 5 -52 -19z"/>
<path d="M3474 875 c9 -37 9 -37 30 -29 21 8 17 23 -14 43 -23 15 -23 15 -16
-14z"/>
<path d="M1703 840 c-20 -24 -21 -29 -7 -34 22 -9 22 -9 29 25 9 40 5 42 -22
9z"/>
<path d="M2422 656 c-17 -37 -15 -46 8 -46 21 0 23 8 11 49 l-6 24 -13 -27z"/>
</g>
</svg>
